<svg xmlns="http://www.w3.org/2000/svg" xmlns:xlink="http://www.w3.org/1999/xlink" version="1.1" x="0px" y="0px" viewBox="0 0 100 125" enable-background="new 0 0 100 100" xml:space="preserve"><path d="M78,5H21.5c-2.6,0-4.7,2.1-4.7,4.7v80.7c0,2.6,2.1,4.7,4.7,4.7H78c2.6,0,4.7-2.1,4.7-4.7V9.7C82.6,7.1,80.5,5,78,5z   M29.3,16.8c0-1.7,1.4-3.1,3.1-3.1h34.8c1.7,0,3.1,1.4,3.1,3.1v32.6c0,1.7-1.4,3.1-3.1,3.1H32.4c-1.7,0-3.1-1.4-3.1-3.1V16.8z   M70.4,82.8H29.1c-0.6,0-1-0.4-1-1s0.4-1,1-1h41.2c0.6,0,1,0.4,1,1S70.9,82.8,70.4,82.8z M70.4,72.8H29.1c-0.6,0-1-0.4-1-1  s0.4-1,1-1h41.2c0.6,0,1,0.4,1,1S70.9,72.8,70.4,72.8z M70.4,62.8H29.1c-0.6,0-1-0.4-1-1s0.4-1,1-1h41.2c0.6,0,1,0.4,1,1  S70.9,62.8,70.4,62.8z"/><path d="M66,48.1c0.2,0-0.7-4.2-0.9-4.7c-0.8-1.8-2.2-2.5-3.7-2.9c-1.1-0.3-3.3-0.8-5.2-1.5c-1.6-0.5-2.9-1.1-3.4-1.7  c-0.1-0.2-0.3-0.5-0.4-0.7c0.3-0.3,0.8-0.6,1-0.8c1.7-1.2,2.4-3.4,2.9-5.3c0.5-2.3,0.9-4.7,0.7-7c-0.1-1.3-0.7-2.5-1.6-3.3  c-1.5-1.4-3.6-1.9-5.4-1.9c0,0,0,0,0,0c0,0,0,0,0,0c0,0,0,0-0.1,0c0,0,0,0,0,0c-1.8,0-3.9,0.5-5.4,1.9c-1.3,1.1-1.7,2.9-1.7,4.5  c0,2,0.3,3.9,0.7,5.9c0.4,1.9,1.2,4.1,2.9,5.3c0.2,0.2,0.7,0.4,1,0.8c-0.1,0.2-0.2,0.5-0.4,0.7c-0.4,0.6-1.8,1.2-3.4,1.7  c-1.9,0.6-4.1,1.1-5.2,1.5c-1.5,0.4-2.9,1.2-3.7,2.9c-0.2,0.4-1.1,4.7-0.9,4.7C33.5,48.1,62.1,48.1,66,48.1z"/><text x="0" y="115" fill="#000000" font-size="5px" font-weight="bold" font-family="'Helvetica Neue', Helvetica, Arial-Unicode, Arial, Sans-serif">Created by Evan Shuster</text><text x="0" y="120" fill="#000000" font-size="5px" font-weight="bold" font-family="'Helvetica Neue', Helvetica, Arial-Unicode, Arial, Sans-serif">from the Noun Project</text></svg>